<svg class="bracket-4" 
	viewBox= "0 0 1000 1000"
	preserveAspectRatio="xMidYMid meet"
	xmlns="http://www.w3.org/2000/svg">
	
	<!-- This makes a grid box so its easier to plot coordinates  -->
<!-- 

<path stroke="green" stroke-width=".2" d="M50 0 V1000" />
<path stroke="green" stroke-width=".4" d="M100 0 V1000" />
<path stroke="green" stroke-width=".2" d="M150 0 V1000" />
<path stroke="green" stroke-width=".4" d="M200 0 V1000" />
<path stroke="green" stroke-width=".2" d="M250 0 V1000" />
<path stroke="green" stroke-width=".4" d="M300 0 V1000" />
<path stroke="green" stroke-width=".2" d="M350 0 V1000" />
<path stroke="green" stroke-width=".4" d="M400 0 V1000" />
<path stroke="green" stroke-width=".2" d="M450 0 V1000" />
<path stroke="green" stroke-width=".4" d="M500 0 V1000" />
<path stroke="green" stroke-width=".2" d="M550 0 V1000" />
<path stroke="green" stroke-width=".4" d="M600 0 V1000" />
<path stroke="green" stroke-width=".2" d="M650 0 V1000" />
<path stroke="green" stroke-width=".4" d="M700 0 V1000" />
<path stroke="green" stroke-width=".2" d="M750 0 V1000" />
<path stroke="green" stroke-width=".4" d="M800 0 V1000" />
<path stroke="green" stroke-width=".2" d="M850 0 V1000" />
<path stroke="green" stroke-width=".4" d="M900 0 V1000" />
<path stroke="green" stroke-width=".2" d="M950 0 V1000" />


<path stroke="green" stroke-width=".2" d="M0 50 H1000" />
<path stroke="green" stroke-width=".4" d="M0 100 H1000" />
<path stroke="green" stroke-width=".2" d="M0 150 H1000" />
<path stroke="green" stroke-width=".4" d="M0 200 H1000" />
<path stroke="green" stroke-width=".2" d="M0 250 H1000" />
<path stroke="green" stroke-width=".4" d="M0 300 H1000" />
<path stroke="green" stroke-width=".2" d="M0 350 H1000" />
<path stroke="green" stroke-width=".4" d="M0 400 H1000" />
<path stroke="green" stroke-width=".2" d="M0 450 H1000" />
<path stroke="green" stroke-width=".4" d="M0 500 H1000" />
<path stroke="green" stroke-width=".2" d="M0 550 H1000" />
<path stroke="green" stroke-width=".4" d="M0 600 H1000" />
<path stroke="green" stroke-width=".2" d="M0 650 H1000" />
<path stroke="green" stroke-width=".4" d="M0 700 H1000" />
<path stroke="green" stroke-width=".2" d="M0 750 H1000" />
<path stroke="green" stroke-width=".4" d="M0 800 H1000" />
<path stroke="green" stroke-width=".2" d="M0 850 H1000" />
<path stroke="green" stroke-width=".4" d="M0 900 H1000" />
<path stroke="green" stroke-width=".2" d="M0 950 H1000" />
 -->




<!-- Name & Number box 1  -->
<rect x="0" y="0" width="400" height="50" stroke="black" rx="3" ry="3" fill="Gray" stroke-width="1"/>
<rect x="0" y="0" width="50" height="50" stroke="black" fill="darkGray" stroke-width="1" rx="1" ry="1"/>
<text x="20" y="30" stroke="black" stroke-width="1">1</text>


<!-- Name & Number box 2  -->
<rect x="0" y="50" width="400" height="50" stroke="black" rx="3" ry="3" fill="Gray" stroke-width="1"/>
<rect x="0" y="50" width="50" height="50" stroke="black" fill="darkGray" stroke-width="1" rx="1" ry="1"/>
<text x="20" y="80" stroke="black" stroke-width="1">4</text>


<!-- Name & Number box 3  -->
<rect x="0" y="200" width="400" height="50" stroke="black" rx="3" ry="3" fill="Gray" stroke-width="1"/>
<rect x="0" y="200" width="50" height="50" stroke="black" fill="darkGray" stroke-width="1" rx="1" ry="1"/>
<text x="20" y="230" stroke="black" stroke-width="1">2</text>


<!-- Name & Number box 4  -->
<rect x="0" y="250" width="400" height="50" stroke="black" rx="3" ry="3" fill="Gray" stroke-width="1"/>
<rect x="0" y="250" width="50" height="50" stroke="black" fill="darkGray" stroke-width="1" rx="1" ry="1"/>
<text x="20" y="280" stroke="black" stroke-width="1">3</text>


<!-- First bracket horizontal line -->
<line x1="400" y1="50" x2="450" y2="50" stroke="white" stroke-width="3" stroke-linecap="round"/>

<!-- Second bracket horizontal line -->
<line x1="400" y1="250" x2="450" y2="250" stroke="white" stroke-width="3" stroke-linecap="round"/>


<!-- First + Second bracket vertical line -->
<line x1="450" y1="50" x2="450" y2="250" stroke="white" stroke-width="3" stroke-linecap="round"/>


<!-- First + Second bracket horizontal line -->
<line x1="450" y1="150" x2="500" y2="150" stroke="white" stroke-width="3" stroke-linecap="round"/>


<!-- Name & Number box 5  -->
<rect x="500" y="100" width="400" height="50" stroke="black" rx="1" ry="1" fill="Gray" stroke-width="1"/>
<rect x="500" y="100" width="50" height="50" stroke="black" fill="darkGray" stroke-width="1" rx="1" ry="1"/>


<!-- Name & Number box 6  -->
<rect x="500" y="150" width="400" height="50" stroke="black" rx="1" ry="1" fill="Gray" stroke-width="1"/>
<rect x="500" y="150" width="50" height="50" stroke="black" fill="darkGray" stroke-width="1" rx="1" ry="1"/>



</svg> 
